# xmcd
#
# Track frame offsets:
#	150
#	20475
#	41796
#	60177
#	80178
#	97998
#	119846
#	135116
#	156609
#	175192
#	195411
#
# Disc length: 2820 seconds
#
# Revision: 3927828369
# Processed by: cddbd v1.5.2PL0 Copyright (c) Steve Scherf et al.
# Submitted via: EZCDAudioConverter 8.0.2.1
#
DISCID=8f0b020b
DTITLE=Pha Lê - Vol 02. Vỏ Bọc
DYEAR=2012
DGENRE=World Pop
TTITLE0=Giấc mơ đánh mất
TTITLE1=Biển đêm
TTITLE2=Nụ hôn để quên
TTITLE3=Lạc vào lối xưa
TTITLE4=Nước mắt đàn ông
TTITLE5=Hãy đến với em
TTITLE6=Em hiểu
TTITLE7=Vỏ Bọc
TTITLE8=Hạnh phúc của tôi
TTITLE9=Tan vỡ
TTITLE10=Vì anh
EXTD=
EXTT0=
EXTT1=
EXTT2=
EXTT3=
EXTT4=
EXTT5=
EXTT6=
EXTT7=
EXTT8=
EXTT9=
EXTT10=
PLAYORDER=
